# xmcd
#
# Track frame offsets:
#	150
#	5890
#	18090
#	28470
#	38989
#	52987
#	62685
#	76377
#	81335
#	87887
#	101097
#	112352
#	122117
#	134862
#	148960
#	159475
#	174622
#
# Disc length: 2484 seconds
#
# Revision: 1
# Processed by: cddbd v1.5.2PL0 Copyright (c) Steve Scherf et al.
# Submitted via: EasyCDDAExtractor 10.0.2.1
#
DISCID=f909b211
DTITLE=Johnny Winter - Sucide won't satisfy
DYEAR=1997
DGENRE=Blues
TTITLE0=My Baby
TTITLE1=Parchman Farm
TTITLE2=Night Ride
TTITLE3=One Night of Love
TTITLE4=32-20 Blues
TTITLE5=Reelin' and Rockin'
TTITLE6=Tramp
TTITLE7=Bad News [1]
TTITLE8=Bad News [2]
TTITLE9=Bad News [3]
TTITLE10=Suicide Won't Satisfy
TTITLE11=Ice Cube
TTITLE12=Easy Loving Girl
TTITLE13=We Go Back Quite a Ways
TTITLE14=Hello My Lover
TTITLE15=Hook You
TTITLE16=You'll Be the Death of Me
EXTD=
EXTT0=
EXTT1=
EXTT2=
EXTT3=
EXTT4=
EXTT5=
EXTT6=
EXTT7=
EXTT8=
EXTT9=
EXTT10=
EXTT11=
EXTT12=
EXTT13=
EXTT14=
EXTT15=
EXTT16=
PLAYORDER=
